PathFileType	4	(X/Y/Z)	C:/Users/opensim2020/Desktop/walking_exp_matlab/subject01_walking11_straight_03.trc																																																																																																																																		
DataRate	CameraRate	NumFrames	NumMarkers	Units	OrigDataRate	OrigDataStartFrame	OrigNumFrames																																																																																																																														
100	100	7	44	mm	100	2997	338																																																																																																																														
Frame#	Time	LFHD			RFHD			LBHD			RBHD			C7			T10			CLAV			STRN			RBAK			LSHO			LUPA			LELB			LFRM			LWRA			LWRB			LFIN			RSHO			RUPA			RELB			RFRM			RWRA			RWRB			RFIN			LASI			RASI			LPSI			RPSI			LTHI			LKNE			LTIB			LANK			LHEE			LTOE			RTHI			RKNE			RTIB			RANK			RHEE			RTOE			*39			*40			*41			*42			*43		
		X1	Y1	Z1	X2	Y2	Z2	X3	Y3	Z3	X4	Y4	Z4	X5	Y5	Z5	X6	Y6	Z6	X7	Y7	Z7	X8	Y8	Z8	X9	Y9	Z9	X10	Y10	Z10	X11	Y11	Z11	X12	Y12	Z12	X13	Y13	Z13	X14	Y14	Z14	X15	Y15	Z15	X16	Y16	Z16	X17	Y17	Z17	X18	Y18	Z18	X19	Y19	Z19	X20	Y20	Z20	X21	Y21	Z21	X22	Y22	Z22	X23	Y23	Z23	X24	Y24	Z24	X25	Y25	Z25	X26	Y26	Z26	X27	Y27	Z27	X28	Y28	Z28	X29	Y29	Z29	X30	Y30	Z30	X31	Y31	Z31	X32	Y32	Z32	X33	Y33	Z33	X34	Y34	Z34	X35	Y35	Z35	X36	Y36	Z36	X37	Y37	Z37	X38	Y38	Z38	X39	Y39	Z39	X40	Y40	Z40	X41	Y41	Z41	X42	Y42	Z42	X43	Y43	Z43	X44	Y44	Z44
																																																																																																																																					
170	1.69	114.78394	1672.49243	1395.4447	143.66548	1683.5885	1504.73987	16.70848	1599.51685	1421.32825	45.1271	1609.56226	1537.5918	21.31417	1422.99744	1448.90234	-4.98151	1130.36182	1457.82312	167.01736	1360.55579	1448.54004	213.47208	1204.58301	1439.05042	-27.6061	1225.95703	1520.82642	108.41313	1393.40674	1288.84204	105.81277	1208.92712	1204.45569	124.57178	1056.68616	1203.02979	199.35692	968.33868	1181.7417	313.90448	892.08234	1203.08875	265.48856	865.62885	1180.37683	337.01163	821.65546	1169.54895	100.72238	1383.70044	1600.17993	32.06707	1183.13257	1691.99902	29.02936	1059.56897	1693.79358	45.7945	941.74658	1727.2644	120.69191	820.11761	1719.729	72.34444	824.19208	1752.94006	103.14101	742.94012	1754.11426	160.79329	921.90137	1340.78162	181.52986	931.00049	1556.40125	-20.19988	936.88397	1412.51343	-4.84709	940.06775	1557.56372	83.10352	592.25006	1294.97107	47.83216	459.95959	1307.67432	-63.88511	305.82971	1297.04468	-167.32268	109.62794	1344.38977	-219.38275	95.5748	1397.14661	-41.22746	32.59858	1338.13025	197.59825	605.17731	1621.77539	248.32736	456.97546	1593.36584	232.84891	281.59964	1606.98071	245.72054	75.71152	1564.90759	198.3551	35.61512	1516.74158	386.24945	43.13855	1559.89233	119.95313	1712.44727	1485.34131	1973.05334	1023.64813	-3101.93774	2012.37842	1021.81439	-3140.69458	NaN	NaN	NaN	NaN	NaN	NaN
171	1.7	121.19532	1673.25146	1397.81445	150.29376	1684.30652	1507.11401	23.06366	1600.25452	1423.7821	51.71389	1610.20459	1540.00391	27.79258	1423.53857	1451.10437	1.98472	1130.88416	1459.6189	173.58258	1361.49268	1450.81653	220.46251	1205.60278	1441.29138	-20.74158	1226.40198	1522.90479	115.01279	1394.13123	1291.12549	112.26093	1209.79077	1206.48303	130.15657	1057.37329	1205.22729	204.12158	968.44342	1183.8208	318.14673	891.31018	1204.89392	269.57736	865.33551	1182.1543	340.81897	820.73792	1171.36804	107.23022	1384.50586	1602.37439	38.80546	1183.677	1693.97278	36.19955	1060.17029	1695.76587	53.37168	942.40735	1729.16614	128.70341	821.06799	1721.37439	80.67675	825.09467	1754.90881	111.59159	743.61719	1755.49561	168.25362	922.5423	1343.1228	188.69278	931.75586	1558.83472	-12.55405	937.82794	1414.13293	2.63088	940.75092	1559.297	91.59409	592.61371	1296.22559	56.79987	460.25104	1308.33838	-57.38389	307.92932	1297.42566	-164.53224	113.65465	1343.80042	-216.62692	100.86173	1396.56311	-41.10413	32.84125	1337.79663	204.4097	605.57513	1623.29443	253.71454	456.97919	1594.60278	236.58626	281.43787	1607.74146	246.39789	75.51624	1564.84705	198.70056	35.89108	1517.15222	386.98334	42.057	1559.37329	126.47929	1713.16003	1487.72021	1973.25317	1023.50287	-3101.9397	2012.5387	1021.97931	-3140.81519	NaN	NaN	NaN	NaN	NaN	NaN
172	1.71	127.56911	1673.97498	1400.10767	156.79172	1684.948	1509.36304	29.39185	1601.03601	1426.20508	58.23111	1610.87598	1542.38464	34.35611	1424.11389	1453.32019	9.01917	1131.42175	1461.37048	180.10762	1362.43274	1453.08215	227.39091	1206.62854	1443.54517	-13.88215	1226.89648	1525.12549	121.63608	1394.97461	1293.45605	118.69319	1210.60229	1208.42542	135.4734	1058.03015	1207.44666	208.73015	968.5094	1185.76404	322.22128	890.47479	1206.69714	273.43307	864.88745	1183.87524	344.26062	819.67975	1173.14429	113.72747	1385.38464	1604.62659	45.56045	1184.35999	1696.08911	43.36929	1060.8927	1697.83618	61.13641	943.13177	1731.15173	136.90366	822.00146	1722.94238	88.94284	825.94873	1756.67102	120.15039	744.49701	1757.23962	176.71906	923.65143	1345.77563	195.84007	932.47363	1561.20642	-4.99747	938.83038	1415.90405	9.7177	941.62457	1561.09192	100.42138	592.92688	1297.40784	66.34438	460.46133	1308.95251	-50.33331	310.20746	1297.72998	-161.16479	117.88747	1343.31604	-213.37936	106.4182	1396.10706	-40.70115	32.9554	1337.73157	210.28026	605.75647	1624.50745	258.49872	456.62949	1595.38037	240.01021	281.26025	1608.32434	247.20049	75.54864	1564.91028	198.83276	36.14787	1517.30701	387.63892	41.37331	1558.85535	133.00392	1713.85388	1490.09924	1973.08899	1023.63055	-3101.9126	2012.54456	1022.08063	-3140.66699	NaN	NaN	NaN	NaN	NaN	NaN
173	1.72	134.02617	1674.71338	1402.41064	163.32013	1685.61401	1511.62793	35.79732	1601.81189	1428.55884	64.73371	1611.5658	1544.69043	40.79675	1424.66223	1455.48816	15.93168	1131.91199	1463.25085	186.59451	1363.35278	1455.33594	234.24289	1207.60901	1445.76111	-6.99507	1227.37524	1527.40662	128.17722	1395.72278	1295.65808	125.52678	1211.47119	1210.23193	140.7926	1058.71118	1209.6864	213.18481	968.53229	1187.73669	326.08856	889.50104	1208.48425	277.04736	864.36163	1185.55823	347.66367	818.55994	1175.03979	120.21449	1386.21704	1606.72961	52.42425	1185.11218	1698.30237	50.55171	1061.55188	1699.94226	68.94522	943.83783	1733.0863	145.18758	823.02869	1724.54688	97.43817	826.62823	1758.31433	129.00237	745.46252	1758.89185	183.89142	924.38068	1347.95593	202.9803	933.13519	1563.49609	2.36349	939.73547	1417.73438	17.34613	942.20618	1562.93848	109.74086	593.1922	1298.53394	76.58292	460.86395	1309.3219	-42.76591	312.56888	1298.07617	-157.47816	122.36304	1342.73083	-209.44287	112.60803	1395.88013	-40.2402	32.95854	1337.78076	216.01184	606.44788	1626.01306	263.09323	456.39978	1596.1731	242.51729	280.47473	1608.16956	247.67941	75.4526	1564.74304	198.95171	36.3674	1517.40393	388.03201	40.79485	1558.42139	139.49701	1714.42505	1492.35254	1973.14978	1023.55798	-3102.02173	2012.57727	1022.16498	-3140.72754	NaN	NaN	NaN	NaN	NaN	NaN
174	1.73	140.35602	1675.46265	1404.66223	169.79486	1686.25464	1513.8429	42.16665	1602.59961	1430.81531	71.19116	1612.28748	1546.95422	47.21334	1425.22144	1457.5968	22.74613	1132.49036	1465.25415	193.07524	1364.24365	1457.51953	241.06171	1208.62952	1448.06079	-0.17489	1227.93213	1529.7915	134.80183	1396.5	1297.88892	132.12671	1212.3147	1212.11182	146.03679	1059.48389	1211.8761	217.47188	968.51434	1189.65125	329.73407	888.38257	1210.31042	280.44925	863.82086	1187.28967	350.71289	817.26581	1176.82068	126.77452	1387.0835	1608.9325	59.24594	1185.89246	1700.66528	57.82894	1062.21619	1702.01526	76.92973	944.50177	1735.01709	153.62698	824.00433	1726.16943	105.78734	827.27136	1759.88147	137.95525	746.35852	1760.42249	190.82664	925.19037	1350.41931	210.00772	933.72925	1565.59509	9.55624	940.60815	1419.65271	24.488	942.99786	1564.90283	119.50069	593.46405	1299.57776	87.357	461.03653	1309.68579	-34.78158	315.19403	1298.45642	-153.28859	127.02811	1342.29407	-204.88898	119.08138	1395.80408	-39.79181	33.07041	1337.82324	218.39021	604.04047	1625.10681	267.36163	456.01901	1597.00122	245.60641	280.70755	1609.12659	248.20413	75.31847	1564.65637	199.08302	36.56683	1517.45569	388.58908	40.3325	1558.26526	145.9619	1715.09302	1494.60083	1973.18665	1023.56915	-3101.92627	2012.50269	1022.13873	-3140.66431	NaN	NaN	NaN	NaN	NaN	NaN
175	1.74	146.71097	1676.14624	1406.82312	176.2744	1686.89148	1515.95874	48.41527	1603.41577	1433.08398	77.58645	1613.02527	1549.17407	53.60371	1425.80408	1459.74207	29.54617	1132.96313	1467.3512	199.52863	1365.06274	1459.66602	247.78433	1209.54346	1450.25122	6.60428	1228.50903	1532.15381	141.34988	1397.13403	1300.06177	138.56487	1213.0116	1213.81396	151.21925	1059.99243	1213.95557	221.60556	968.45502	1191.55676	333.14838	887.1593	1212.06091	283.61542	863.09198	1188.98328	353.44788	816.00085	1178.54919	133.27299	1387.88208	1611.03711	66.24123	1186.64001	1703.05127	65.06432	1062.79175	1704.22485	84.89803	945.0517	1737.02185	162.19258	825.03326	1727.83545	114.44633	828.08569	1761.78247	146.97862	747.12921	1761.90845	197.63289	925.98163	1352.65137	216.96899	934.23816	1567.65833	16.4718	941.33527	1421.65442	31.17963	944.11932	1566.9458	129.68571	593.65674	1300.47925	98.85799	461.15726	1310.00427	-26.38956	318.13849	1298.8042	-148.65057	132.18372	1342.15198	-199.58728	125.85676	1395.92444	-39.16834	33.22912	1337.79211	223.7966	604.74689	1626.88623	271.21091	455.56311	1597.94641	247.94048	280.35913	1609.55542	248.47267	75.25257	1564.51526	199.17606	36.77513	1517.44263	389.11288	39.89613	1558.04285	152.48878	1715.76892	1496.75232	1973.01196	1023.29553	-3101.93066	2012.46899	1022.0293	-3140.82861	NaN	NaN	NaN	NaN	NaN	NaN
176	1.75	153.01743	1676.77771	1408.84277	182.72809	1687.5155	1518.00183	54.71806	1604.19312	1435.27515	83.97437	1613.79138	1551.31238	59.92922	1426.30237	1461.76575	36.34713	1133.49658	1469.56213	205.96072	1365.84387	1461.80334	254.41985	1210.38086	1452.42029	13.32446	1228.99182	1534.49097	147.94446	1397.77319	1302.19055	145.01614	1213.75073	1215.8269	156.32327	1060.59985	1216.03406	225.77261	968.32947	1193.41248	336.34338	885.76477	1213.83899	286.57327	862.30151	1190.68506	355.88861	814.39789	1180.27319	139.76378	1388.61853	1613.10962	73.23457	1187.2915	1705.45935	72.41946	1063.29504	1706.35046	92.72629	945.60327	1739.06848	170.79977	825.98596	1729.44299	123.32672	828.80511	1763.66614	156.22163	747.98596	1763.47742	204.25745	926.69366	1354.94019	223.76025	934.65753	1569.66003	23.19718	941.95935	1423.73083	37.92697	945.22601	1569.21057	140.19203	593.76807	1301.33057	110.70602	461.25919	1310.1178	-17.55603	321.40402	1299.18262	-143.19785	137.4511	1341.99976	-193.35994	133.01558	1396.45276	-38.42025	33.35249	1337.86389	228.37701	604.63556	1628.2688	274.6745	455.08438	1599.10681	249.62018	279.57358	1609.59705	248.82106	75.1201	1564.41699	199.26057	36.67723	1517.29614	389.53061	39.49461	1557.89514	158.96002	1716.44812	1498.85303	1973.06189	1023.62988	-3101.92993	2012.47058	1022.02728	-3140.60278	NaN	NaN	NaN	NaN	NaN	NaN
